<svg xmlns="http://www.w3.org/2000/svg" viewBox="0 0 24 24" fill="currentColor">
  <path d="M20.447 20.452h-3.554v-5.569c0-1.328-.475-2.236-1.986-2.236-1.081 0-1.722.731-2.004 1.438-.103.25-.129.599-.129.948v5.419h-3.554s.047-8.733 0-9.635h3.554v1.366c.429-.658 1.196-1.593 2.905-1.593 2.122 0 3.714 1.388 3.714 4.373v5.489zM5.337 8.855c-1.144 0-1.915-.759-1.915-1.71 0-.951.77-1.71 1.915-1.71 1.144 0 1.914.759 1.914 1.71 0 .951-.77 1.71-1.914 1.71zm1.575 11.597H3.762V9.072h3.15v11.38zM22.225 0H1.771C.792 0 0 .774 0 1.729v20.542C0 23.227.792 24 1.771 24h20.451C23.2 24 24 23.227 24 22.271V1.729C24 .774 23.2 0 22.222 0h.003z"/>
</svg>